<?xml version="1.0" encoding="UTF-8" standalone="no"?>
<!-- Created with Inkscape (http://www.inkscape.org/) -->

<svg
   width="210mm"
   height="210mm"
   viewBox="0 0 210 210"
   version="1.1"
   id="svg5"
   xml:space="preserve"
   sodipodi:docname="logo-blanco.svg"
   inkscape:version="1.2.1 (9c6d41e410, 2022-07-14)"
   xmlns:inkscape="http://www.inkscape.org/namespaces/inkscape"
   xmlns:sodipodi="http://sodipodi.sourceforge.net/DTD/sodipodi-0.dtd"
   xmlns="http://www.w3.org/2000/svg"
   xmlns:svg="http://www.w3.org/2000/svg"><sodipodi:namedview
     id="namedview7"
     pagecolor="#ffffff"
     bordercolor="#000000"
     borderopacity="0.25"
     inkscape:showpageshadow="2"
     inkscape:pageopacity="0.37647059"
     inkscape:pagecheckerboard="0"
     inkscape:deskcolor="#d1d1d1"
     inkscape:document-units="mm"
     showgrid="false"
     inkscape:zoom="0.46769781"
     inkscape:cx="496.04679"
     inkscape:cy="501.39213"
     inkscape:window-width="1360"
     inkscape:window-height="706"
     inkscape:window-x="-8"
     inkscape:window-y="-8"
     inkscape:window-maximized="1"
     inkscape:current-layer="g531" /><defs
     id="defs2" /><g
     inkscape:label="Capa 1"
     inkscape:groupmode="layer"
     id="layer1"
     style="display:inline"><g
       id="g531"><path
         style="fill:#000000;stroke-width:0.743828"
         d="m 120.48042,71.820356 c -1.33865,-0.845739 -2.4339,-1.723025 -2.4339,-1.949503 0,-0.793229 4.11446,-5.740243 6.29591,-7.569844 5.35769,-4.49356 12.65581,-7.387972 18.62851,-7.387972 h 3.72085 l -0.46803,2.308746 c -0.2573,1.269802 -0.46808,2.719678 -0.46808,3.221951 0,0.579017 -1.64468,1.060385 -4.49366,1.315238 -5.53735,0.49532 -9.82595,2.844254 -14.44366,7.911003 -1.86115,2.042145 -3.50096,3.707367 -3.64398,3.700515 -0.14295,-0.0055 -1.3553,-0.704396 -2.69396,-1.550134 z"
         id="path539" /><path
         style="fill:#000000;stroke-width:0.743828"
         d="M 86.218382,69.161385 C 81.752146,64.316244 78.081187,62.318881 72.620723,61.762909 68.05539,61.298067 68.251279,61.459356 67.540796,57.580483 l -0.526342,-2.873525 5.302494,0.374257 c 7.328981,0.517323 13.565632,3.620516 19.07534,9.491367 2.30301,2.453998 4.187315,4.748211 4.187315,5.098223 0,0.596908 -4.708926,3.805662 -5.330658,3.632449 -0.157379,-0.0438 -1.9711,-1.907663 -4.030563,-4.141869 z"
         id="path537" /><path
         style="fill:#000000;stroke-width:0.743828"
         d="m 104.96782,77.274834 c -2.9223,-4.242543 -2.58729,-5.18109 1.95733,-5.483462 2.12113,-0.14102 4.36836,0.11257 4.99387,0.563819 0.99689,0.719096 0.9186,1.175159 -0.63422,3.694549 -2.9841,4.841479 -3.72678,4.985505 -6.31698,1.225094 z"
         id="path535" /><path
         style="fill:#000000;stroke-width:0.743828"
         d="M 69.742652,189.82672 C 59.496261,186.58354 51.793752,178.53887 50.210002,169.42642 49.14258,163.28479 42.776394,129.8327 39.313621,112.16973 36.210036,96.338896 35.603122,91.942561 35.862317,87.169231 l 0.314497,-5.791821 -3.250069,0.480814 c -3.203547,0.473944 -3.25007,0.449921 -3.25007,-1.676943 0,-2.017237 0.249253,-2.200584 3.828323,-2.81576 l 3.828318,-0.657992 1.804224,-4.74893 c 1.234543,-3.249487 1.545927,-4.90641 0.986172,-5.247708 -0.44993,-0.2742 -3.168391,-0.936222 -6.041006,-1.470956 -2.872622,-0.534725 -5.386456,-1.233201 -5.586299,-1.552182 -0.199831,-0.318991 -0.162809,-1.368282 0.08231,-2.331745 l 0.445669,-1.751714 6.130093,1.330786 c 3.371551,0.731904 6.635594,1.32812 7.253432,1.324883 0.617842,-0.0028 2.682077,-2.239426 4.587198,-4.969284 3.368266,-4.826466 3.549433,-5.377468 6.565542,-19.969136 1.705937,-8.253165 3.651529,-15.833568 4.323548,-16.845381 1.695498,-2.552764 4.824936,-3.980516 8.724678,-3.980516 3.692898,0 4.269139,0.360756 13.678165,8.563371 l 6.050999,5.275161 4.808014,-1.025277 c 6.996268,-1.491927 21.437815,-1.428767 29.318105,0.128182 l 6.53657,1.291492 6.39491,-5.628051 c 3.51718,-3.095391 7.25191,-5.840198 8.29935,-6.099552 3.47973,-0.8616 7.90557,0.208025 10.19114,2.462612 1.88214,1.856768 2.47592,3.643395 4.74486,14.276609 3.47372,16.27941 3.34375,15.904554 7.48324,21.581185 4.10195,5.625119 3.94495,5.580439 12.54275,3.569391 l 5.81323,-1.359733 0.43566,1.712374 c 0.64756,2.54521 0.10306,2.933198 -5.60918,3.996479 -2.87262,0.534724 -5.59958,1.201837 -6.05991,1.48252 -0.59125,0.360489 -0.35612,1.955331 0.80092,5.432393 1.37082,4.119479 1.91074,4.922078 3.31115,4.922078 0.92029,0 2.72642,0.207739 4.01358,0.461753 1.96557,0.387794 2.34029,0.799611 2.34029,2.571658 0,2.062894 -0.0722,2.10014 -3.23845,1.672001 l -3.2385,-0.437887 -0.0451,6.91649 c -0.0255,3.804067 -0.70137,10.12697 -1.50364,14.050905 l -1.45868,7.13442 3.7848,2.46992 c 6.53676,4.26586 6.78597,5.11289 7.06065,23.99977 0.25785,17.73271 -0.17521,20.92449 -3.3424,24.63785 -2.88972,3.38793 -5.7227,4.50832 -12.08545,4.77954 l -5.71477,0.24348 -0.8259,3.61768 c -2.00126,8.76598 -8.39819,16.28466 -16.65285,19.57306 -4.25862,1.69652 -4.65631,1.71599 -38.00399,1.86085 -25.713382,0.11165 -34.41034,-0.0785 -36.695976,-0.80178 z m 71.007438,-6.80057 c 5.9772,-2.00917 11.69259,-7.96383 13.58506,-14.15382 l 0.50823,-1.6623 h -49.10321 c -39.861166,0 -49.103204,0.18123 -49.103204,0.96315 0,2.24247 4.085838,8.78374 6.821828,10.92147 6.423172,5.01863 6.556869,5.03482 41.910276,5.07313 27.2579,0.0297 32.38944,-0.13598 35.38102,-1.14163 z m 14.89392,-23.37805 c 0.29388,-0.92015 3.0746,-15.13756 6.17934,-31.59426 3.10479,-16.45667 5.78318,-30.503027 5.95202,-31.214127 0.27116,-1.14257 -0.34056,-1.292875 -5.26313,-1.292875 -4.65696,0 -5.63409,0.211935 -5.96033,1.292875 -3.50577,11.615777 -15.30819,17.633787 -26.92499,13.728917 -4.54361,-1.52732 -10.25459,-6.96099 -11.56662,-11.005099 -0.519,-1.599693 -1.21829,-3.202991 -1.55399,-3.562954 -0.6353,-0.681176 -20.671854,-1.102122 -21.598827,-0.453739 -0.290468,0.203275 -1.113991,1.911186 -1.830025,3.795573 -3.76255,9.901909 -16.595964,15.199959 -26.567814,10.968029 -4.684681,-1.98811 -9.883071,-7.36233 -11.343192,-11.726871 l -1.015917,-3.036731 h -5.59047 -5.590471 l 0.409459,2.031677 c 0.225193,1.117412 3.020744,15.662485 6.212324,32.322315 3.191577,16.65987 6.053823,30.6231 6.36054,31.02944 0.364269,0.48258 17.655167,0.67847 49.857713,0.56482 l 49.30002,-0.17396 z m 18.49161,-3.1071 1.9504,-1.92406 v -16.91601 c 0,-16.8861 -0.003,-16.91936 -1.81559,-18.82251 -0.99857,-1.04859 -2.19081,-1.90652 -2.64949,-1.90652 -0.4977,0 -2.28816,7.67053 -4.44059,19.02399 -1.98368,10.46323 -3.79261,19.98913 -4.01987,21.16874 l -0.41323,2.14473 4.71901,-0.42213 c 3.74497,-0.33503 5.12154,-0.81926 6.66936,-2.34623 z M 80.414638,103.58408 c 4.149643,-1.98172 6.830691,-5.907676 7.427137,-10.875816 l 0.457483,-3.810596 h 17.402022 17.40202 l 0.33712,4.010081 c 0.73796,8.778871 10.00509,14.568871 18.33478,11.455411 4.79478,-1.79219 8.47386,-7.371362 8.47386,-12.850278 v -3.354035 h 9.37548 9.37549 l -0.43573,-2.031668 c -0.23973,-1.117421 -0.57854,-2.736738 -0.75313,-3.598467 -0.29481,-1.455206 -0.95798,-1.604488 -9.31422,-2.096488 l -8.99677,-0.529745 v -2.181698 -2.181706 l 8.63334,0.50918 8.63335,0.509208 -1.56644,-3.61893 c -0.86156,-1.990438 -1.79779,-3.83922 -2.08052,-4.108431 -0.28276,-0.269175 -3.52028,0.160284 -7.19459,0.954223 -7.41327,1.601989 -8.89052,1.429791 -8.53714,-0.99526 0.20692,-1.419158 1.11462,-1.83743 6.60537,-3.043279 3.50111,-0.768893 6.48542,-1.505713 6.63186,-1.63741 0.14634,-0.131788 -1.2893,-2.233699 -3.1905,-4.671116 -3.37509,-4.327015 -3.5282,-4.759341 -6.47943,-18.296029 -1.66247,-7.625374 -3.38527,-14.295338 -3.82846,-14.82216 -1.59982,-1.901632 -3.96007,-0.865242 -9.9146,4.353482 -3.33312,2.921219 -6.65079,5.799342 -7.37259,6.395861 -1.1619,0.960227 -2.10629,0.889026 -8.23787,-0.621003 -9.08044,-2.236213 -22.820371,-2.317291 -31.395933,-0.185127 l -5.748008,1.429071 -7.777178,-6.802764 c -4.277438,-3.741515 -8.468598,-7.167811 -9.313682,-7.613961 -2.91457,-1.53881 -3.946838,0.315828 -6.318615,11.352212 -1.218907,5.671906 -2.732127,12.718334 -3.362703,15.658735 -0.8584,4.002786 -1.886951,6.318329 -4.09327,9.215064 -1.620728,2.127898 -2.946784,4.085128 -2.946784,4.349424 0,0.264435 3.117285,1.127814 6.9273,1.918932 6.587448,1.367867 6.914517,1.526463 6.666838,3.23334 -0.143251,0.98721 -0.397293,1.934729 -0.564557,2.105618 -0.167246,0.170879 -3.581776,-0.383359 -7.587817,-1.231578 -4.006042,-0.848247 -7.533697,-1.389869 -7.839214,-1.203562 -0.533956,0.325529 -3.593726,6.709821 -3.593726,7.498366 0,0.211087 3.875541,0.155249 8.612311,-0.123987 4.736776,-0.279364 8.616913,-0.24516 8.622538,0.07626 0.0055,0.321314 0.204105,1.297052 0.441068,2.168335 0.418521,1.538755 0.160717,1.599462 -9.008884,2.12123 -5.191842,0.295392 -9.564,0.746152 -9.715883,1.001688 -0.151883,0.255489 -0.513168,1.87748 -0.802825,3.604433 l -0.52667,3.139859 h 8.948276 8.948275 l 0.452568,3.769688 c 1.259418,10.490463 10.648829,16.020653 19.789253,11.655543 z"
         id="path635" /></g></g></svg>
