<?xml version="1.0" encoding="UTF-8" standalone="no"?>
<!-- Created with Inkscape (http://www.inkscape.org/) -->

<svg
   width="210mm"
   height="297mm"
   viewBox="0 0 210 297"
   version="1.1"
   id="svg5"
   xml:space="preserve"
   inkscape:version="1.2.1 (9c6d41e410, 2022-07-14)"
   sodipodi:docname="catcafe-logo.svg"
   xmlns:inkscape="http://www.inkscape.org/namespaces/inkscape"
   xmlns:sodipodi="http://sodipodi.sourceforge.net/DTD/sodipodi-0.dtd"
   xmlns="http://www.w3.org/2000/svg"
   xmlns:svg="http://www.w3.org/2000/svg"><sodipodi:namedview
     id="namedview7"
     pagecolor="#ffffff"
     bordercolor="#000000"
     borderopacity="0.25"
     inkscape:showpageshadow="2"
     inkscape:pageopacity="0.0"
     inkscape:pagecheckerboard="0"
     inkscape:deskcolor="#d1d1d1"
     inkscape:document-units="mm"
     showgrid="false"
     inkscape:zoom="0.46769781"
     inkscape:cx="324.99618"
     inkscape:cy="522.77345"
     inkscape:window-width="1360"
     inkscape:window-height="706"
     inkscape:window-x="-8"
     inkscape:window-y="-8"
     inkscape:window-maximized="1"
     inkscape:current-layer="layer1" /><defs
     id="defs2" /><g
     inkscape:label="Capa 1"
     inkscape:groupmode="layer"
     id="layer1"><path
       style="fill:#000000;stroke-width:0.806599"
       d="M 71.924395,263.76809 C 60.813315,260.25122 52.460797,251.52767 50.74339,241.64622 49.585888,234.9863 42.682463,198.7112 38.927468,179.55766 35.561972,162.39087 34.903841,157.62353 35.184909,152.44738 l 0.341038,-6.28059 -3.524341,0.52139 c -3.473893,0.51394 -3.524342,0.48789 -3.524342,-1.81846 0,-2.18747 0.270287,-2.38629 4.151393,-3.05338 l 4.151388,-0.71352 1.956482,-5.14969 c 1.338726,-3.52371 1.676387,-5.32046 1.069395,-5.69056 -0.4879,-0.29734 -3.43577,-1.01523 -6.550804,-1.59509 -3.115042,-0.57985 -5.841017,-1.33727 -6.057725,-1.68317 -0.216694,-0.34591 -0.176548,-1.48375 0.08926,-2.52852 l 0.483279,-1.89954 6.647409,1.44309 c 3.656074,0.79367 7.195568,1.4402 7.865546,1.43669 0.669981,-0.003 2.908416,-2.42841 4.974309,-5.38864 3.652513,-5.23377 3.848969,-5.83127 7.119605,-21.654316 1.849897,-8.949654 3.959681,-17.16976 4.688415,-18.266962 1.838576,-2.768187 5.232108,-4.316432 9.460943,-4.316432 4.004542,0 4.629418,0.391202 14.832464,9.286037 l 6.56164,5.720323 5.213764,-1.1118 c 7.586673,-1.617831 23.246923,-1.549339 31.792233,0.139004 l 7.08818,1.400476 6.93458,-6.103001 c 3.81399,-3.356611 7.86389,-6.333048 8.99973,-6.614284 3.77338,-0.93431 8.57272,0.225578 11.05116,2.67043 2.04098,2.013457 2.68487,3.950854 5.14528,15.481403 3.76687,17.653222 3.62593,17.246732 8.11475,23.402412 4.44811,6.09982 4.27786,6.05137 13.60123,3.87061 l 6.3038,-1.47448 0.47243,1.85688 c 0.7022,2.76 0.11175,3.18073 -6.08254,4.33374 -3.11504,0.57985 -6.07213,1.30326 -6.5713,1.60763 -0.64115,0.39091 -0.38618,2.12034 0.86851,5.89083 1.4865,4.46712 2.07198,5.33745 3.59057,5.33745 0.99796,0 2.9565,0.22527 4.35229,0.50072 2.13144,0.42052 2.53778,0.86709 2.53778,2.78868 0,2.23698 -0.0783,2.27737 -3.51174,1.8131 l -3.51179,-0.47484 -0.0489,7.50017 c -0.0276,4.12509 -0.76056,10.98158 -1.63053,15.23666 l -1.58178,7.73649 4.1042,2.67835 c 7.08839,4.62585 7.35864,5.54437 7.65649,26.0251 0.27961,19.22917 -0.18999,22.6903 -3.62446,26.71703 -3.13358,3.67383 -6.20564,4.88877 -13.10534,5.18288 l -6.19703,0.26403 -0.8956,3.92297 c -2.17014,9.50574 -9.10691,17.65892 -18.05818,21.22483 -4.618,1.83968 -5.04925,1.8608 -41.21113,2.01788 -27.883305,0.12108 -37.314202,-0.0851 -39.792717,-0.86944 z m 76.999715,-7.37446 c 6.48161,-2.17873 12.67932,-8.6359 14.7315,-15.34826 l 0.55111,-1.80258 h -53.247 c -43.225024,0 -53.247002,0.19652 -53.247002,1.04443 0,2.43171 4.43064,9.525 7.397527,11.84313 6.965217,5.44215 7.1102,5.4597 45.447055,5.50125 29.55818,0.0322 35.12277,-0.14746 38.36681,-1.23797 z m 16.15081,-25.35092 c 0.31868,-0.9978 3.33406,-16.41501 6.70081,-34.26048 3.3668,-17.84545 6.27122,-33.07717 6.45431,-33.84828 0.29404,-1.23899 -0.3693,-1.40198 -5.70728,-1.40198 -5.04996,0 -6.10955,0.22982 -6.46332,1.40198 -3.80162,12.59603 -16.60004,19.12189 -29.19718,14.88749 -4.92705,-1.6562 -11.11997,-7.54842 -12.54272,-11.93381 -0.5628,-1.73469 -1.32111,-3.47329 -1.68513,-3.86363 -0.68892,-0.73866 -22.41634,-1.19513 -23.421535,-0.49203 -0.314986,0.22043 -1.208002,2.07247 -1.984459,4.11588 -4.080069,10.73753 -17.996494,16.48268 -28.809863,11.89362 -5.080017,-2.15589 -10.7171,-7.98364 -12.300443,-12.7165 l -1.101649,-3.293 h -6.062246 -6.062248 l 0.444013,2.20313 c 0.244197,1.21171 3.275663,16.98423 6.736579,35.04998 3.46091,18.06579 6.564699,33.20737 6.897302,33.648 0.395011,0.52331 19.145085,0.73573 54.065179,0.61249 l 53.46042,-0.18864 z m 20.05211,-3.36931 2.11499,-2.08643 v -18.34354 c 0,-18.31111 -0.003,-18.34718 -1.9688,-20.41093 -1.08284,-1.13708 -2.3757,-2.06742 -2.87308,-2.06742 -0.53971,0 -2.48126,8.31785 -4.81533,20.62942 -2.15109,11.34622 -4.11267,21.676 -4.35911,22.95516 l -0.4481,2.32573 5.11724,-0.45776 c 4.06101,-0.3633 5.55375,-0.8884 7.23219,-2.54423 z M 83.496981,170.24747 c 4.499836,-2.14896 7.40713,-6.40622 8.053912,-11.79362 l 0.496094,-4.13217 h 18.870553 18.87057 l 0.36557,4.34849 c 0.80024,9.51972 10.84942,15.79833 19.88205,12.42213 5.19941,-1.94343 9.18896,-7.99343 9.18896,-13.93471 v -3.63708 h 10.16667 10.16669 l -0.4725,-2.20312 c -0.25996,-1.21172 -0.62737,-2.96769 -0.81669,-3.90214 -0.31969,-1.57801 -1.03882,-1.73989 -10.10024,-2.27341 l -9.75601,-0.57445 v -2.36581 -2.36582 l 9.36191,0.55215 9.36191,0.55218 -1.69863,-3.92433 c -0.93427,-2.15841 -1.9495,-4.16321 -2.25609,-4.45514 -0.30662,-0.29189 -3.81736,0.17381 -7.80174,1.03475 -8.03887,1.73718 -9.64079,1.55045 -9.25759,-1.07925 0.22438,-1.53892 1.20869,-1.99249 7.1628,-3.3001 3.79656,-0.83378 7.03272,-1.63278 7.19152,-1.77559 0.15869,-0.14291 -1.39811,-2.4222 -3.45975,-5.06531 -3.65991,-4.69217 -3.82594,-5.16098 -7.02622,-19.84002 -1.80277,-8.268875 -3.67095,-15.501716 -4.15155,-16.072996 -1.73482,-2.062115 -4.29425,-0.938265 -10.75128,4.720865 -3.61441,3.16774 -7.21205,6.288756 -7.99476,6.935613 -1.25996,1.041259 -2.28404,0.964046 -8.93306,-0.673405 -9.84674,-2.424933 -24.74617,-2.512859 -34.045414,-0.200751 l -6.233082,1.549667 -8.433488,-7.376853 c -4.638411,-4.057262 -9.183267,-7.772693 -10.099668,-8.256501 -3.160523,-1.668667 -4.279907,0.342486 -6.851832,12.31022 -1.321774,6.150561 -2.962695,13.791631 -3.646482,16.980171 -0.930838,4.34058 -2.046187,6.85153 -4.438703,9.99272 -1.757498,2.30747 -3.195461,4.42987 -3.195461,4.71647 0,0.28675 3.380349,1.22299 7.511888,2.08087 7.143367,1.4833 7.498033,1.65528 7.229456,3.5062 -0.15534,1.07052 -0.430825,2.098 -0.612198,2.28331 -0.181367,0.1853 -3.884043,-0.41571 -8.228156,-1.33551 -4.344111,-0.91983 -8.16946,-1.50716 -8.50076,-1.30513 -0.579016,0.353 -3.896999,7.27606 -3.896999,8.13115 0,0.2289 4.202597,0.16835 9.339105,-0.13445 5.136506,-0.30294 9.34409,-0.26585 9.350188,0.0827 0.0064,0.34843 0.221331,1.40651 0.478293,2.35132 0.453832,1.66861 0.174277,1.73444 -9.769141,2.30024 -5.629984,0.32032 -10.371106,0.80912 -10.535807,1.08622 -0.1647,0.27705 -0.556474,2.03592 -0.870575,3.90861 l -0.571115,3.40483 h 9.703417 9.703418 l 0.490756,4.08781 c 1.365702,11.37574 11.547485,17.37263 21.459261,12.63914 z M 110.12219,141.718 c -3.1689,-4.60057 -2.80562,-5.61832 2.12251,-5.94621 2.30013,-0.15292 4.737,0.12207 5.4153,0.6114 1.08101,0.77978 0.99612,1.27433 -0.68775,4.00633 -3.23592,5.25005 -4.04128,5.40623 -6.85006,1.32848 z m -20.331686,-8.79814 c -4.843142,-5.25402 -8.82389,-7.41994 -14.745158,-8.02283 -4.950602,-0.50407 -4.738182,-0.32917 -5.508627,-4.53538 l -0.570755,-3.11602 5.749968,0.40584 c 7.947471,0.56098 14.710428,3.92605 20.685097,10.29234 2.497363,2.66109 4.540683,5.14891 4.540683,5.52846 0,0.64728 -5.106306,4.12682 -5.780511,3.93899 -0.170656,-0.0475 -2.137435,-2.06865 -4.370697,-4.4914 z m 37.153386,2.88336 c -1.45162,-0.91711 -2.6393,-1.86843 -2.6393,-2.11402 0,-0.86017 4.46168,-6.22466 6.82722,-8.20866 5.80983,-4.87277 13.72383,-8.01144 20.20056,-8.01144 h 4.03486 l -0.50753,2.50358 c -0.27902,1.37696 -0.50758,2.94919 -0.50758,3.49385 0,0.62788 -1.78348,1.14987 -4.87288,1.42623 -6.00465,0.53712 -10.65516,3.08428 -15.66256,8.57861 -2.01821,2.21448 -3.7964,4.02023 -3.95149,4.0128 -0.15501,-0.006 -1.46967,-0.76384 -2.9213,-1.68095 z m -21.7456,-67.302783 c -0.46221,-2.076016 -0.18784,-2.840108 1.61002,-4.484744 4.68283,-4.283594 4.47881,-7.836275 -0.8183,-14.252027 -4.79601,-5.808807 -6.051148,-8.508278 -6.030457,-12.969919 0.01847,-4.104555 2.093527,-9.536227 4.343777,-11.373339 1.19567,-0.976178 1.61622,-0.891457 3.29395,0.663451 l 1.92331,1.782459 -1.93733,3.342271 c -3.08765,5.326784 -2.3303,8.681561 3.36347,14.898893 7.05973,7.708864 6.92818,16.615437 -0.33265,22.519708 -3.70356,3.011593 -4.72236,2.987762 -5.41579,-0.12691 z m 17.14244,-0.629784 c -1.33013,-1.449988 -1.32874,-1.737371 0.0276,-5.502185 1.39308,-3.869401 1.38596,-4.099931 -0.27563,-8.900569 l -1.70578,-4.928314 2.32502,-1.186076 c 1.27879,-0.652369 2.4704,-1.186104 2.64808,-1.186104 0.17771,0 1.01807,1.523205 1.86754,3.384877 2.03159,4.452352 2.07037,13.56457 0.0733,17.244546 -1.6137,2.973747 -2.95074,3.263249 -4.95925,1.073825 z M 89.072227,45.179508 c -3.08606,-4.750687 -3.446189,-12.516114 -0.815658,-17.587885 1.627983,-3.138794 2.638749,-3.439408 4.80722,-1.429733 1.80612,1.673905 1.856176,1.943393 0.751951,4.049871 -1.562014,2.979887 -1.50674,8.733883 0.105866,11.004931 1.400968,1.973187 0.75183,3.444645 -2.209239,5.008002 -1.13688,0.600229 -1.721495,0.368773 -2.640007,-1.045186 z"
       id="path635" /></g></svg>
